<svg width="16" height="17" viewBox="0 0 16 17" fill="none" xmlns="http://www.w3.org/2000/svg">
  <path
    d="M7.99998 1.66666C6.92308 1.66666 5.76997 1.87324 4.74998 2.3216C4.68217 2.35012 4.62148 2.39324 4.57225 2.44791C3.02472 3.17966 1.67835 4.46837 0.84048 5.52668C0.837831 5.53012 0.835226 5.53359 0.832667 5.5371C0.142807 6.45626 -0.135498 7.75804 0.440089 8.86067L1.68618 11.2467C2.00767 11.8623 2.6974 12.0947 3.26235 11.9596C3.67325 11.8614 4.05214 11.5563 4.2298 11.1308C4.40801 11.5072 4.58018 11.8376 4.70832 12.1328V12.1335C5.14447 13.1379 5.42837 13.7941 5.93683 14.2532C6.4453 14.7124 7.1121 14.8333 7.99998 14.8333C8.94071 14.8333 9.60791 14.6799 10.0905 14.2077C10.573 13.7355 10.824 13.0999 11.2832 12.1517C11.4149 11.8794 11.6038 11.5223 11.8001 11.0963C11.9708 11.5404 12.3616 11.8587 12.7838 11.9596C13.3488 12.0947 14.0385 11.8623 14.36 11.2467L15.6061 8.86067C16.1817 7.75804 15.9034 6.45626 15.2135 5.5371C15.211 5.53359 15.2084 5.53012 15.2057 5.52668C14.3842 4.48906 13.0733 3.23134 11.5638 2.49283C11.5258 2.45749 11.4825 2.42827 11.4355 2.40624C10.3715 1.89848 9.14257 1.66666 7.99998 1.66666ZM7.99998 2.66666C8.76213 2.66666 9.58058 2.79049 10.3236 3.0371C10.3674 3.07053 10.4164 3.09649 10.4687 3.11392C11.9891 3.64227 13.553 5.05348 14.4153 6.14061C14.9052 6.79527 15.0759 7.71472 14.7194 8.39778L13.4733 10.7838C13.3608 10.9993 13.1965 11.0301 13.0163 10.987C12.8362 10.9439 12.7099 10.8473 12.7096 10.6074V10.6068L12.7129 6.32551C12.7139 6.25926 12.7017 6.19347 12.677 6.13197C12.6523 6.07047 12.6157 6.01448 12.5692 5.96727C12.5227 5.92006 12.4673 5.88255 12.4062 5.85694C12.3451 5.83133 12.2795 5.81811 12.2132 5.81807C12.1469 5.81803 12.0813 5.83115 12.0202 5.85669C11.959 5.88222 11.9036 5.91965 11.857 5.96681C11.8105 6.01396 11.7738 6.0699 11.749 6.13136C11.7243 6.19283 11.712 6.2586 11.7129 6.32486L11.7122 7.02147C11.7074 7.05074 11.7053 7.08037 11.7057 7.11002C11.7057 9.37487 10.8558 10.7402 10.3834 11.7161C10.2 12.095 10.0648 12.3651 9.93097 12.6256C9.842 12.6474 9.73712 12.6667 9.60415 12.6667C9.27092 12.6667 8.82665 12.533 8.33332 12.0124V10.6269C8.90738 10.5031 9.33332 10.0731 9.33332 9.55598C9.33332 9.47965 9.32429 9.40532 9.30663 9.33332H6.69334C6.67568 9.40499 6.66665 9.47965 6.66665 9.55598C6.66665 10.0731 7.09259 10.5031 7.66665 10.6269V12.0124C7.17332 12.533 6.72905 12.6667 6.39582 12.6667C6.24503 12.6667 6.12676 12.6429 6.03319 12.6172C5.91047 12.3703 5.77938 12.0906 5.62499 11.735C5.14281 10.6243 4.41195 9.65394 4.33462 7.54426L4.33332 6.32486C4.33421 6.2586 4.32193 6.19283 4.29718 6.13136C4.27243 6.0699 4.23572 6.01396 4.18916 5.96681C4.14261 5.91965 4.08715 5.88222 4.026 5.85669C3.96486 5.83115 3.89925 5.81803 3.83299 5.81807C3.76673 5.81811 3.70113 5.83133 3.64002 5.85694C3.57891 5.88255 3.5235 5.92006 3.47701 5.96727C3.43052 6.01448 3.39387 6.07047 3.3692 6.13197C3.34454 6.19347 3.33234 6.25926 3.33332 6.32551L3.33397 7.01106C3.32991 7.03733 3.32795 7.06389 3.32811 7.09048C3.32719 7.22345 3.33085 7.35058 3.33462 7.4772L3.33722 10.6074C3.33694 10.8473 3.20995 10.9439 3.02993 10.987C2.84972 11.03 2.68542 10.9993 2.5729 10.7838L1.32681 8.39778C0.970244 7.71472 1.141 6.79527 1.63084 6.14061C2.49322 5.05348 4.05714 3.64227 5.57746 3.11392C5.64187 3.09248 5.70123 3.05814 5.75194 3.01301C6.4746 2.78256 7.2634 2.66666 7.99998 2.66666ZM5.99999 5.49999C5.82317 5.49999 5.6536 5.57023 5.52858 5.69525C5.40356 5.82028 5.33332 5.98985 5.33332 6.16666C5.33332 6.34347 5.40356 6.51304 5.52858 6.63806C5.6536 6.76308 5.82317 6.83332 5.99999 6.83332C6.1768 6.83332 6.34636 6.76308 6.47139 6.63806C6.59641 6.51304 6.66665 6.34347 6.66665 6.16666C6.66665 5.98985 6.59641 5.82028 6.47139 5.69525C6.34636 5.57023 6.1768 5.49999 5.99999 5.49999ZM9.99998 5.49999C9.82317 5.49999 9.6536 5.57023 9.52858 5.69525C9.40356 5.82028 9.33332 5.98985 9.33332 6.16666C9.33332 6.34347 9.40356 6.51304 9.52858 6.63806C9.6536 6.76308 9.82317 6.83332 9.99998 6.83332C10.1768 6.83332 10.3464 6.76308 10.4714 6.63806C10.5964 6.51304 10.6667 6.34347 10.6667 6.16666C10.6667 5.98985 10.5964 5.82028 10.4714 5.69525C10.3464 5.57023 10.1768 5.49999 9.99998 5.49999ZM7.99998 12.5788C8.53238 13.0728 9.08061 13.3029 9.52277 13.3281C9.47849 13.3877 9.43383 13.4518 9.39126 13.4935C9.13625 13.743 8.84993 13.8333 7.99998 13.8333C7.19121 13.8333 6.87469 13.7524 6.60741 13.5111C6.55515 13.4639 6.50178 13.4014 6.44725 13.3301C6.89435 13.3138 7.4556 13.0839 7.99998 12.5788Z"
    fill="#848A93" />
</svg>