<svg width="20" height="20" viewBox="0 0 20 20" fill="none" xmlns="http://www.w3.org/2000/svg">
  <path
    d="M8.11523 1.89575C4.67638 1.89575 1.875 4.69713 1.875 8.13599C1.875 11.5748 4.67638 14.3762 8.11523 14.3762C9.2108 14.3762 10.2403 14.09 11.1365 13.5913C11.5117 14.6353 12.2909 15.7115 13.2031 16.6504C14.3114 17.7911 15.5683 18.75 16.875 18.75C17.3934 18.75 17.8943 18.5999 18.2471 18.2471C18.5999 17.8943 18.75 17.3934 18.75 16.875C18.75 15.5606 17.769 14.313 16.6211 13.2104C15.6741 12.3009 14.6005 11.5263 13.5791 11.1438C14.073 10.2509 14.3555 9.22587 14.3555 8.13599C14.3555 4.69713 11.5541 1.89575 8.11523 1.89575ZM8.11523 3.14575C10.8785 3.14575 13.1055 5.37268 13.1055 8.13599C13.1055 10.8993 10.8785 13.1262 8.11523 13.1262C5.35193 13.1262 3.125 10.8993 3.125 8.13599C3.125 5.37268 5.35193 3.14575 8.11523 3.14575ZM12.8259 12.2144C13.5661 12.4222 14.787 13.1823 15.7556 14.1125C16.7839 15.1002 17.5 16.3144 17.5 16.875C17.5 17.1691 17.4324 17.2942 17.3633 17.3633C17.2942 17.4324 17.1691 17.5 16.875 17.5C16.3067 17.5 15.0882 16.798 14.0991 15.78C13.1625 14.816 12.4054 13.5937 12.2119 12.8308C12.4305 12.6398 12.6357 12.4337 12.8259 12.2144Z"
    fill="#848A93" />
</svg>